# xmcd CD database file
#
# Track frame offsets:
#	150
#	21560
#	37191
#	55831
#	76306
#	99186
#	116655
#	135156
#	155979
#	177147
#	194743
#	218037
#	235088
#	250793
#	277105
#	304187
#	326780
#
# Disc length: 4685 seconds
#
# Revision: 1
# Processed by: cddbd v1.4PL0 Copyright (c) Steve Scherf et al.
# Submitted via: CDex 1.50
#
DISCID=f5124b11
DTITLE=Benny Benassi - Hypnotica
DYEAR=2003
DGENRE=New Age
TTITLE0=Satisfaction
TTITLE1=Able To Love
TTITLE2=No Matter What You Do
TTITLE3=Let It Be
TTITLE4=Love Is Gonna Save Us
TTITLE5=Inside Of Me
TTITLE6=I Wanna Touch Your Soul
TTITLE7=Im Sorry
TTITLE8=Time
TTITLE9=Put Your Hands Up
TTITLE10=Get Loose
TTITLE11=Change Style
TTITLE12=I Love My Sex
TTITLE13=Dont Touch Too Much
TTITLE14=Tomcraft - Lonelines (Benny Benassi Remix)
TTITLE15=In-Grid - Tu Es Foutu (Benny Benassi Original Remix)
TTITLE16=Sonique - Alive (Benny Benassi Sfaction Club Dub Mix)
EXTD=YEAR: 2003
EXTT0=
EXTT1=
EXTT2=
EXTT3=
EXTT4=
EXTT5=
EXTT6=
EXTT7=
EXTT8=
EXTT9=
EXTT10=
EXTT11=
EXTT12=
EXTT13=
EXTT14=
EXTT15=
EXTT16=
PLAYORDER=
